<svg width="375" height="379" viewBox="0 0 375 379" fill="none" xmlns="http://www.w3.org/2000/svg">
<mask id="mask0_24260_671" style="mask-type:alpha" maskUnits="userSpaceOnUse" x="0" y="0" width="375" height="379">
<rect width="375" height="379" fill="#8257E5"/>
</mask>
<g mask="url(#mask0_24260_671)">
<path d="M319 240L313.348 245.621" stroke="#04D361" stroke-width="2" stroke-miterlimit="10" stroke-linecap="round" stroke-linejoin="round"/>
<path d="M319 245.621L313.348 240" stroke="#04D361" stroke-width="2" stroke-miterlimit="10" stroke-linecap="round" stroke-linejoin="round"/>
<path d="M60.7868 240.619L52.7936 240.619" stroke="#04D361" stroke-width="2" stroke-miterlimit="10" stroke-linecap="round" stroke-linejoin="round"/>
<path d="M56.7911 244.603L56.7911 236.645" stroke="#04D361" stroke-width="2" stroke-miterlimit="10" stroke-linecap="round" stroke-linejoin="round"/>
<path d="M241.205 113.661C238.529 113.661 236.348 111.502 236.348 108.831C236.348 106.169 238.519 104 241.205 104C243.882 104 246.063 106.159 246.063 108.831C246.054 111.502 243.882 113.661 241.205 113.661Z" stroke="#04D361" stroke-width="2" stroke-miterlimit="10" stroke-linecap="round" stroke-linejoin="round"/>
<path d="M146.205 328.661C143.528 328.661 141.348 326.502 141.348 323.831C141.348 321.169 143.519 319 146.205 319C148.882 319 151.063 321.159 151.063 323.831C151.054 326.502 148.882 328.661 146.205 328.661Z" stroke="#04D361" stroke-width="2" stroke-miterlimit="10" stroke-linecap="round" stroke-linejoin="round"/>
<path d="M106.389 91.7498C106.389 92.716 107.176 93.4993 108.148 93.4993C109.12 93.4993 109.907 92.716 109.907 91.7498C109.907 90.7835 109.12 90.0002 108.148 90.0002C107.176 90.0002 106.389 90.7835 106.389 91.7498Z" fill="#9871F5"/>
<path d="M106.389 103.97C106.389 104.937 107.176 105.72 108.148 105.72C109.12 105.72 109.907 104.937 109.907 103.97C109.907 103.004 109.12 102.221 108.148 102.221C107.176 102.221 106.389 103.004 106.389 103.97Z" fill="#9871F5"/>
<path d="M106.389 116.18C106.389 117.146 107.176 117.929 108.148 117.929C109.12 117.929 109.907 117.146 109.907 116.18C109.907 115.214 109.12 114.43 108.148 114.43C107.176 114.43 106.389 115.214 106.389 116.18Z" fill="#9871F5"/>
<path d="M106.389 128.4C106.389 129.366 107.176 130.15 108.148 130.15C109.12 130.15 109.907 129.366 109.907 128.4C109.907 127.434 109.12 126.651 108.148 126.651C107.176 126.651 106.389 127.434 106.389 128.4Z" fill="#9871F5"/>
<path d="M106.389 140.611C106.389 141.577 107.176 142.36 108.148 142.36C109.12 142.36 109.907 141.577 109.907 140.611C109.907 139.644 109.12 138.861 108.148 138.861C107.176 138.861 106.389 139.644 106.389 140.611Z" fill="#9871F5"/>
<path d="M94.1088 91.7495C94.1088 92.7157 94.8965 93.499 95.8681 93.499C96.8398 93.499 97.6274 92.7157 97.6274 91.7495C97.6274 90.7833 96.8398 90 95.8681 90C94.8965 90 94.1088 90.7833 94.1088 91.7495Z" fill="#9871F5"/>
<path d="M94.1088 103.97C94.1088 104.936 94.8965 105.72 95.8681 105.72C96.8398 105.72 97.6274 104.936 97.6274 103.97C97.6274 103.004 96.8398 102.221 95.8681 102.221C94.8965 102.221 94.1088 103.004 94.1088 103.97Z" fill="#9871F5"/>
<path d="M94.1088 116.18C94.1088 117.146 94.8965 117.93 95.8681 117.93C96.8398 117.93 97.6274 117.146 97.6274 116.18C97.6274 115.214 96.8398 114.431 95.8681 114.431C94.8965 114.431 94.1088 115.214 94.1088 116.18Z" fill="#9871F5"/>
<path d="M94.1088 128.4C94.1088 129.367 94.8965 130.15 95.8681 130.15C96.8398 130.15 97.6274 129.367 97.6274 128.4C97.6274 127.434 96.8398 126.651 95.8681 126.651C94.8965 126.651 94.1088 127.434 94.1088 128.4Z" fill="#9871F5"/>
<path d="M94.1088 140.611C94.1088 141.577 94.8965 142.36 95.8681 142.36C96.8398 142.36 97.6274 141.577 97.6274 140.611C97.6274 139.645 96.8398 138.861 95.8681 138.861C94.8965 138.861 94.1088 139.645 94.1088 140.611Z" fill="#9871F5"/>
<path d="M81.8195 91.7495C81.8195 92.7157 82.6072 93.499 83.5789 93.499C84.5505 93.499 85.3382 92.7157 85.3382 91.7495C85.3382 90.7833 84.5505 90 83.5789 90C82.6072 90 81.8195 90.7833 81.8195 91.7495Z" fill="#9871F5"/>
<path d="M81.8195 103.97C81.8195 104.936 82.6072 105.72 83.5789 105.72C84.5505 105.72 85.3382 104.936 85.3382 103.97C85.3382 103.004 84.5505 102.221 83.5789 102.221C82.6072 102.221 81.8195 103.004 81.8195 103.97Z" fill="#9871F5"/>
<path d="M81.8195 116.18C81.8195 117.146 82.6072 117.93 83.5789 117.93C84.5505 117.93 85.3382 117.146 85.3382 116.18C85.3382 115.214 84.5505 114.431 83.5789 114.431C82.6072 114.431 81.8195 115.214 81.8195 116.18Z" fill="#9871F5"/>
<path d="M81.8196 128.4C81.8196 129.367 82.6072 130.15 83.5789 130.15C84.5505 130.15 85.3382 129.367 85.3382 128.4C85.3382 127.434 84.5505 126.651 83.5789 126.651C82.6072 126.651 81.8196 127.434 81.8196 128.4Z" fill="#9871F5"/>
<path d="M81.8195 140.611C81.8195 141.577 82.6072 142.36 83.5789 142.36C84.5505 142.36 85.3382 141.577 85.3382 140.611C85.3382 139.645 84.5505 138.861 83.5789 138.861C82.6072 138.861 81.8195 139.645 81.8195 140.611Z" fill="#9871F5"/>
<path d="M69.5398 91.7495C69.5398 92.7157 70.3274 93.499 71.2991 93.499C72.2707 93.499 73.0584 92.7157 73.0584 91.7495C73.0584 90.7833 72.2707 90 71.2991 90C70.3274 90 69.5398 90.7833 69.5398 91.7495Z" fill="#9871F5"/>
<path d="M69.5398 103.97C69.5398 104.936 70.3274 105.72 71.2991 105.72C72.2707 105.72 73.0584 104.936 73.0584 103.97C73.0584 103.004 72.2707 102.221 71.2991 102.221C70.3275 102.221 69.5398 103.004 69.5398 103.97Z" fill="#9871F5"/>
<path d="M69.5398 116.18C69.5398 117.146 70.3274 117.93 71.2991 117.93C72.2707 117.93 73.0584 117.146 73.0584 116.18C73.0584 115.214 72.2707 114.431 71.2991 114.431C70.3275 114.431 69.5398 115.214 69.5398 116.18Z" fill="#9871F5"/>
<path d="M69.5398 128.4C69.5398 129.367 70.3274 130.15 71.2991 130.15C72.2707 130.15 73.0584 129.367 73.0584 128.4C73.0584 127.434 72.2707 126.651 71.2991 126.651C70.3275 126.651 69.5398 127.434 69.5398 128.4Z" fill="#9871F5"/>
<path d="M69.5398 140.611C69.5398 141.577 70.3275 142.36 71.2991 142.36C72.2707 142.36 73.0584 141.577 73.0584 140.611C73.0584 139.645 72.2707 138.861 71.2991 138.861C70.3275 138.861 69.5398 139.645 69.5398 140.611Z" fill="#9871F5"/>
<path d="M300.829 298.75C300.829 299.716 301.617 300.499 302.588 300.499C303.56 300.499 304.348 299.716 304.348 298.75C304.348 297.783 303.56 297 302.588 297C301.617 297 300.829 297.783 300.829 298.75Z" fill="#9871F5"/>
<path d="M300.829 310.96C300.829 311.926 301.617 312.709 302.588 312.709C303.56 312.709 304.348 311.926 304.348 310.96C304.348 309.994 303.56 309.21 302.588 309.21C301.617 309.21 300.829 309.994 300.829 310.96Z" fill="#9871F5"/>
<path d="M300.829 323.18C300.829 324.146 301.617 324.929 302.588 324.929C303.56 324.929 304.348 324.146 304.348 323.18C304.348 322.213 303.56 321.43 302.588 321.43C301.617 321.43 300.829 322.213 300.829 323.18Z" fill="#9871F5"/>
<path d="M288.54 298.75C288.54 299.716 289.328 300.499 290.299 300.499C291.271 300.499 292.058 299.716 292.058 298.75C292.058 297.783 291.271 297 290.299 297C289.328 297 288.54 297.783 288.54 298.75Z" fill="#9871F5"/>
<path d="M288.54 310.96C288.54 311.926 289.327 312.709 290.299 312.709C291.271 312.709 292.058 311.926 292.058 310.96C292.058 309.994 291.271 309.21 290.299 309.21C289.327 309.21 288.54 309.994 288.54 310.96Z" fill="#9871F5"/>
<path d="M288.54 323.18C288.54 324.146 289.327 324.93 290.299 324.93C291.271 324.93 292.058 324.146 292.058 323.18C292.058 322.214 291.271 321.431 290.299 321.431C289.327 321.431 288.54 322.214 288.54 323.18Z" fill="#9871F5"/>
<path d="M227.206 208L221.554 213.621" stroke="#04D361" stroke-width="2" stroke-miterlimit="10" stroke-linecap="round" stroke-linejoin="round"/>
<path d="M227.206 213.621L221.554 208" stroke="#04D361" stroke-width="2" stroke-miterlimit="10" stroke-linecap="round" stroke-linejoin="round"/>
<path d="M149.412 81.6612C146.735 81.6612 144.554 79.5019 144.554 76.8306C144.554 74.1687 146.726 72 149.412 72C152.089 72 154.269 74.1593 154.269 76.8306C154.26 79.5019 152.089 81.6612 149.412 81.6612Z" stroke="#04D361" stroke-width="2" stroke-miterlimit="10" stroke-linecap="round" stroke-linejoin="round"/>
<path d="M54.4118 296.661C51.7349 296.661 49.5541 294.502 49.5541 291.831C49.5541 289.169 51.7256 287 54.4118 287C57.0887 287 59.2695 289.159 59.2695 291.831C59.2601 294.502 57.0887 296.661 54.4118 296.661Z" stroke="#04D361" stroke-width="2" stroke-miterlimit="10" stroke-linecap="round" stroke-linejoin="round"/>
<path d="M14.5952 59.7498C14.5952 60.716 15.3829 61.4993 16.3545 61.4993C17.3262 61.4993 18.1138 60.716 18.1138 59.7498C18.1138 58.7835 17.3262 58.0002 16.3545 58.0002C15.3829 58.0002 14.5952 58.7835 14.5952 59.7498Z" fill="#9871F5"/>
<path d="M14.5952 71.9703C14.5952 72.9366 15.3829 73.7199 16.3545 73.7199C17.3262 73.7199 18.1139 72.9366 18.1139 71.9703C18.1139 71.0041 17.3262 70.2208 16.3545 70.2208C15.3829 70.2208 14.5952 71.0041 14.5952 71.9703Z" fill="#9871F5"/>
<path d="M14.5952 84.1799C14.5952 85.1462 15.3829 85.9294 16.3545 85.9294C17.3262 85.9294 18.1138 85.1462 18.1138 84.1799C18.1138 83.2137 17.3262 82.4304 16.3545 82.4304C15.3829 82.4304 14.5952 83.2137 14.5952 84.1799Z" fill="#9871F5"/>
<path d="M14.5952 96.4001C14.5952 97.3664 15.3829 98.1497 16.3545 98.1497C17.3262 98.1497 18.1138 97.3664 18.1138 96.4001C18.1138 95.4339 17.3262 94.6506 16.3545 94.6506C15.3829 94.6506 14.5952 95.4339 14.5952 96.4001Z" fill="#9871F5"/>
<path d="M14.5952 108.611C14.5952 109.577 15.3829 110.36 16.3545 110.36C17.3262 110.36 18.1138 109.577 18.1138 108.611C18.1138 107.644 17.3262 106.861 16.3545 106.861C15.3829 106.861 14.5952 107.644 14.5952 108.611Z" fill="#9871F5"/>
<path d="M2.3152 59.7495C2.3152 60.7157 3.10288 61.499 4.07452 61.499C5.04616 61.499 5.83384 60.7157 5.83384 59.7495C5.83384 58.7833 5.04616 58 4.07452 58C3.10288 58 2.3152 58.7833 2.3152 59.7495Z" fill="#9871F5"/>
<path d="M2.3152 71.9702C2.3152 72.9364 3.10288 73.7197 4.07452 73.7197C5.04616 73.7197 5.83384 72.9364 5.83384 71.9702C5.83384 71.004 5.04616 70.2207 4.07452 70.2207C3.10288 70.2207 2.3152 71.004 2.3152 71.9702Z" fill="#9871F5"/>
<path d="M2.3152 84.1802C2.3152 85.1464 3.10288 85.9297 4.07452 85.9297C5.04616 85.9297 5.83384 85.1464 5.83384 84.1802C5.83384 83.2139 5.04616 82.4307 4.07452 82.4307C3.10288 82.4307 2.3152 83.2139 2.3152 84.1802Z" fill="#9871F5"/>
<path d="M2.3152 96.4004C2.3152 97.3666 3.10288 98.1499 4.07452 98.1499C5.04616 98.1499 5.83384 97.3666 5.83384 96.4004C5.83384 95.4342 5.04616 94.6509 4.07452 94.6509C3.10288 94.6509 2.3152 95.4342 2.3152 96.4004Z" fill="#9871F5"/>
<path d="M2.3152 108.611C2.3152 109.577 3.10288 110.36 4.07452 110.36C5.04616 110.36 5.83384 109.577 5.83384 108.611C5.83384 107.645 5.04616 106.861 4.07452 106.861C3.10288 106.861 2.3152 107.645 2.3152 108.611Z" fill="#9871F5"/>
<path d="M209.035 266.75C209.035 267.716 209.823 268.499 210.795 268.499C211.766 268.499 212.554 267.716 212.554 266.75C212.554 265.783 211.766 265 210.795 265C209.823 265 209.035 265.783 209.035 266.75Z" fill="#9871F5"/>
<path d="M209.036 278.96C209.036 279.926 209.823 280.709 210.795 280.709C211.766 280.709 212.554 279.926 212.554 278.96C212.554 277.994 211.766 277.21 210.795 277.21C209.823 277.21 209.036 277.994 209.036 278.96Z" fill="#9871F5"/>
<path d="M209.036 291.18C209.036 292.146 209.823 292.929 210.795 292.929C211.766 292.929 212.554 292.146 212.554 291.18C212.554 290.213 211.766 289.43 210.795 289.43C209.823 289.43 209.036 290.213 209.036 291.18Z" fill="#9871F5"/>
<path d="M196.746 266.75C196.746 267.716 197.534 268.499 198.506 268.499C199.477 268.499 200.265 267.716 200.265 266.75C200.265 265.783 199.477 265 198.506 265C197.534 265 196.746 265.783 196.746 266.75Z" fill="#9871F5"/>
<path d="M196.746 278.96C196.746 279.926 197.534 280.709 198.506 280.709C199.477 280.709 200.265 279.926 200.265 278.96C200.265 277.994 199.477 277.21 198.506 277.21C197.534 277.21 196.746 277.994 196.746 278.96Z" fill="#9871F5"/>
<path d="M196.746 291.18C196.746 292.146 197.534 292.93 198.506 292.93C199.477 292.93 200.265 292.146 200.265 291.18C200.265 290.214 199.477 289.431 198.506 289.431C197.534 289.431 196.746 290.214 196.746 291.18Z" fill="#9871F5"/>
<path d="M287.993 204.619L280 204.619" stroke="#04D361" stroke-width="2" stroke-miterlimit="10" stroke-linecap="round" stroke-linejoin="round"/>
<path d="M283.997 208.603L283.997 200.645" stroke="#04D361" stroke-width="2" stroke-miterlimit="10" stroke-linecap="round" stroke-linejoin="round"/>
<path d="M373.412 292.661C370.735 292.661 368.554 290.502 368.554 287.831C368.554 285.169 370.726 283 373.412 283C376.089 283 378.269 285.159 378.269 287.831C378.26 290.502 376.089 292.661 373.412 292.661Z" stroke="#04D361" stroke-width="2" stroke-miterlimit="10" stroke-linecap="round" stroke-linejoin="round"/>
<path d="M333.595 55.7498C333.595 56.716 334.383 57.4993 335.355 57.4993C336.326 57.4993 337.114 56.716 337.114 55.7498C337.114 54.7835 336.326 54.0002 335.355 54.0002C334.383 54.0002 333.595 54.7835 333.595 55.7498Z" fill="#9871F5"/>
<path d="M333.595 67.9703C333.595 68.9366 334.383 69.7199 335.355 69.7199C336.326 69.7199 337.114 68.9366 337.114 67.9703C337.114 67.0041 336.326 66.2208 335.355 66.2208C334.383 66.2208 333.595 67.0041 333.595 67.9703Z" fill="#9871F5"/>
<path d="M333.595 80.1799C333.595 81.1462 334.383 81.9294 335.355 81.9294C336.326 81.9294 337.114 81.1462 337.114 80.1799C337.114 79.2137 336.326 78.4304 335.355 78.4304C334.383 78.4304 333.595 79.2137 333.595 80.1799Z" fill="#9871F5"/>
<path d="M333.595 92.4001C333.595 93.3664 334.383 94.1497 335.355 94.1497C336.326 94.1497 337.114 93.3664 337.114 92.4001C337.114 91.4339 336.326 90.6506 335.355 90.6506C334.383 90.6506 333.595 91.4339 333.595 92.4001Z" fill="#9871F5"/>
<path d="M333.595 104.611C333.595 105.577 334.383 106.36 335.355 106.36C336.326 106.36 337.114 105.577 337.114 104.611C337.114 103.644 336.326 102.861 335.355 102.861C334.383 102.861 333.595 103.644 333.595 104.611Z" fill="#9871F5"/>
<path d="M321.315 55.7495C321.315 56.7157 322.103 57.499 323.075 57.499C324.046 57.499 324.834 56.7157 324.834 55.7495C324.834 54.7833 324.046 54 323.075 54C322.103 54 321.315 54.7833 321.315 55.7495Z" fill="#9871F5"/>
<path d="M321.315 67.9702C321.315 68.9364 322.103 69.7197 323.075 69.7197C324.046 69.7197 324.834 68.9364 324.834 67.9702C324.834 67.004 324.046 66.2207 323.075 66.2207C322.103 66.2207 321.315 67.004 321.315 67.9702Z" fill="#9871F5"/>
<path d="M321.315 80.1802C321.315 81.1464 322.103 81.9297 323.075 81.9297C324.046 81.9297 324.834 81.1464 324.834 80.1802C324.834 79.2139 324.046 78.4307 323.075 78.4307C322.103 78.4307 321.315 79.2139 321.315 80.1802Z" fill="#9871F5"/>
<path d="M321.315 92.4004C321.315 93.3666 322.103 94.1499 323.075 94.1499C324.046 94.1499 324.834 93.3666 324.834 92.4004C324.834 91.4342 324.046 90.6509 323.075 90.6509C322.103 90.6509 321.315 91.4342 321.315 92.4004Z" fill="#9871F5"/>
<path d="M321.315 104.611C321.315 105.577 322.103 106.36 323.075 106.36C324.046 106.36 324.834 105.577 324.834 104.611C324.834 103.645 324.046 102.861 323.075 102.861C322.103 102.861 321.315 103.645 321.315 104.611Z" fill="#9871F5"/>
<path d="M309.026 55.7495C309.026 56.7157 309.814 57.499 310.785 57.499C311.757 57.499 312.545 56.7157 312.545 55.7495C312.545 54.7833 311.757 54 310.785 54C309.814 54 309.026 54.7833 309.026 55.7495Z" fill="#9871F5"/>
<path d="M309.026 67.9702C309.026 68.9364 309.814 69.7197 310.785 69.7197C311.757 69.7197 312.545 68.9364 312.545 67.9702C312.545 67.004 311.757 66.2207 310.785 66.2207C309.814 66.2207 309.026 67.004 309.026 67.9702Z" fill="#9871F5"/>
<path d="M309.026 80.1802C309.026 81.1464 309.814 81.9297 310.785 81.9297C311.757 81.9297 312.545 81.1464 312.545 80.1802C312.545 79.2139 311.757 78.4307 310.785 78.4307C309.814 78.4307 309.026 79.2139 309.026 80.1802Z" fill="#9871F5"/>
<path d="M309.026 92.4004C309.026 93.3666 309.814 94.1499 310.785 94.1499C311.757 94.1499 312.545 93.3666 312.545 92.4004C312.545 91.4342 311.757 90.6509 310.785 90.6509C309.814 90.6509 309.026 91.4342 309.026 92.4004Z" fill="#9871F5"/>
<path d="M309.026 104.611C309.026 105.577 309.814 106.36 310.785 106.36C311.757 106.36 312.545 105.577 312.545 104.611C312.545 103.645 311.757 102.861 310.785 102.861C309.814 102.861 309.026 103.645 309.026 104.611Z" fill="#9871F5"/>
<path d="M296.746 55.7495C296.746 56.7157 297.534 57.499 298.506 57.499C299.477 57.499 300.265 56.7157 300.265 55.7495C300.265 54.7833 299.477 54 298.506 54C297.534 54 296.746 54.7833 296.746 55.7495Z" fill="#9871F5"/>
<path d="M296.746 67.9702C296.746 68.9364 297.534 69.7197 298.506 69.7197C299.477 69.7197 300.265 68.9364 300.265 67.9702C300.265 67.004 299.477 66.2207 298.506 66.2207C297.534 66.2207 296.746 67.004 296.746 67.9702Z" fill="#9871F5"/>
<path d="M296.746 80.1802C296.746 81.1464 297.534 81.9297 298.506 81.9297C299.477 81.9297 300.265 81.1464 300.265 80.1802C300.265 79.2139 299.477 78.4307 298.506 78.4307C297.534 78.4307 296.746 79.2139 296.746 80.1802Z" fill="#9871F5"/>
<path d="M296.746 92.4004C296.746 93.3666 297.534 94.1499 298.506 94.1499C299.477 94.1499 300.265 93.3666 300.265 92.4004C300.265 91.4342 299.477 90.6509 298.506 90.6509C297.534 90.6509 296.746 91.4342 296.746 92.4004Z" fill="#9871F5"/>
<path d="M296.746 104.611C296.746 105.577 297.534 106.36 298.506 106.36C299.477 106.36 300.265 105.577 300.265 104.611C300.265 103.645 299.477 102.861 298.506 102.861C297.534 102.861 296.746 103.645 296.746 104.611Z" fill="#9871F5"/>
</g>
</svg>
