<svg xmlns="http://www.w3.org/2000/svg" width="72" height="88" fill="none" viewBox="0 0 72 88">
  <path fill="#fff" d="M55.276.623H15.805C5.3.623 0 5.766 0 15.952v54.514c0 1.335.711 2.157 2.243 2.157h11.931c1.428 0 2.348-.822 2.348-2.157v-2.07c0-5.049 2.11-7.8 7.353-8.331h31.401C66.797 60.065 72 55.027 72 44.019V16.67C72 5.66 66.797.623 55.276.623Zm.22 38.767c0 5.97-1.341 7.2-8.382 7.2H30.39c-7.035 0-11.527 2.368-13.874 6.997V19.963c0-4.63 1.121-5.866 6.729-5.866h23.869c7.04 0 8.382 1.237 8.382 7.201V39.39Z"/>
  <path stroke="#fff" stroke-linecap="round" stroke-miterlimit="4.445" stroke-width="13" d="M29.25 53.3c4.8.3 13.5 4.05 13.5 15.3.3 6 4.77 16.56 20.25 10.8"/>
  <circle cx="35.916" cy="26.864" r="6.159" fill="#fff"/>
  <path fill="#fff" d="M33.806 29.986h4.556l.963 6.31c.188 1.235.283 1.853.105 2.335a2 2 0 0 1-.912 1.063c-.45.248-1.076.248-2.326.248-1.213 0-1.82 0-2.263-.239a2 2 0 0 1-.913-1.028c-.185-.468-.114-1.07.03-2.275l.76-6.414Z"/>
</svg>
